#tb 0: 1/1000
0,          0,          0,        0,    59994, f5e1cf4cc56742fadddf42189a3f65e3
0,         33,         33,        0,    59994, f3e8ca2c8deb29a6b5bfe415b39c901e
0,         66,         66,        0,    59994, 89c513049e41e145bca46a7f7119567c
0,        100,        100,        0,    59994, 419089035739e84f1aa14ccdf34edcb1
0,        133,        133,        0,    59994, 4962c98c23b16b9257869a8ad5138731
0,        166,        166,        0,    59994, fde9e858ec895c36c2d8071e69f68db6
0,        200,        200,        0,    59994, 42e1271915f31a00be3627fa866ce3ee
0,        233,        233,        0,    59994, c15f794933f913861a6d0041ff2fccdb
0,        266,        266,        0,    59994, 35dab245ba952dc6fddc1a9668c30b28
0,        300,        300,        0,    59994, 30bb4ef77cdde9cf5aea0f1287183b23
